<?xml version="1.0" standalone="no"?>
<!DOCTYPE svg PUBLIC "-//W3C//DTD SVG 20010904//EN"
 "http://www.w3.org/TR/2001/REC-SVG-20010904/DTD/svg10.dtd">
<svg version="1.0" xmlns="http://www.w3.org/2000/svg"
 width="512.000000pt" height="512.000000pt" viewBox="0 0 512.000000 512.000000"
 preserveAspectRatio="xMidYMid meet">

<g transform="translate(0.000000,512.000000) scale(0.100000,-0.100000)"
fill="#000000" stroke="none">
<path d="M2493 4590 c-55 -11 -77 -24 -130 -73 -69 -64 -87 -106 -87 -207 -1
-76 3 -91 29 -138 32 -59 66 -91 129 -125 33 -17 58 -22 126 -22 76 0 91 3
139 30 131 72 189 252 123 381 -24 48 -100 120 -147 140 -44 18 -130 25 -182
14z"/>
<path d="M695 3977 c-64 -30 -129 -103 -152 -170 -17 -49 -18 -132 -18 -1562
0 -1695 -7 -1540 76 -1630 62 -68 108 -88 199 -89 101 -1 154 21 218 88 88 93
84 57 89 686 l4 555 34 125 c80 291 190 484 395 691 198 198 398 310 700 391
l115 30 230 -5 c206 -4 240 -8 320 -30 278 -78 466 -188 671 -392 178 -178
289 -355 363 -583 61 -185 62 -193 71 -773 5 -319 13 -553 19 -576 24 -88 106
-172 194 -198 63 -19 100 -19 163 0 89 26 136 64 178 145 l39 73 -6 561 c-6
601 -9 646 -62 858 -170 668 -686 1229 -1330 1447 -203 68 -339 91 -576 98
-242 7 -341 -3 -548 -53 -363 -89 -592 -212 -928 -500 l-43 -37 -1 149 c0 82
-4 230 -8 329 -9 201 -18 233 -90 308 -54 58 -104 80 -191 84 -64 3 -83 0
-125 -20z"/>
<path d="M2493 2710 c-86 -18 -146 -68 -194 -162 l-29 -57 0 -798 c1 -816 6
-966 34 -1021 24 -47 83 -102 135 -126 65 -29 178 -28 243 3 61 29 116 83 142
140 21 46 21 51 21 921 -1 658 -4 885 -13 916 -16 54 -83 129 -143 159 -54 28
-134 38 -196 25z"/>
</g>
</svg>
