<?xml version="1.0" standalone="no"?>
<!DOCTYPE svg PUBLIC "-//W3C//DTD SVG 20010904//EN"
 "http://www.w3.org/TR/2001/REC-SVG-20010904/DTD/svg10.dtd">
<svg version="1.0" xmlns="http://www.w3.org/2000/svg"
 width="856.000000pt" height="856.000000pt" viewBox="0 0 856.000000 856.000000"
 preserveAspectRatio="xMidYMid meet">

<g transform="translate(0.000000,856.000000) scale(0.100000,-0.100000)"
fill="#000000" stroke="none">
<path d="M4190 7690 c-110 -19 -177 -55 -263 -141 -42 -42 -77 -88 -93 -123
-119 -261 -22 -542 233 -668 l86 -43 121 0 c140 0 183 12 284 80 257 172 294
534 77 750 -102 103 -185 141 -320 149 -44 2 -100 1 -125 -4z"/>
<path d="M4060 6229 c-301 -15 -726 -109 -1036 -230 -597 -232 -1146 -662
-1527 -1198 -354 -497 -579 -1099 -627 -1681 -13 -156 -13 -1791 0 -1861 22
-118 108 -247 213 -317 93 -63 142 -77 267 -77 97 1 124 4 175 25 158 62 252
161 305 318 20 61 21 87 29 955 10 970 8 934 70 1178 58 225 165 473 296 684
321 521 858 918 1435 1061 52 13 101 24 107 24 10 0 13 -381 13 -1882 1 -1538
3 -1897 14 -1959 19 -105 59 -181 136 -260 118 -120 255 -165 429 -141 203 29
375 201 410 413 8 46 11 623 11 1948 l0 1883 48 -7 c113 -16 267 -70 493 -173
148 -67 360 -209 538 -361 345 -292 643 -772 762 -1226 69 -263 69 -273 79
-1215 9 -839 10 -856 31 -924 44 -135 134 -238 267 -301 279 -134 634 48 692
354 13 68 13 1571 0 1761 -45 667 -282 1303 -688 1843 -324 431 -750 787
-1222 1022 -232 116 -350 162 -570 223 -270 75 -475 109 -745 122 -197 10
-184 10 -405 -1z"/>
</g>
</svg>
